<svg width="328" height="246" viewBox="0 0 328 246" fill="none" xmlns="http://www.w3.org/2000/svg">
<path d="M124.64 106.738C124.58 106.749 124.519 106.749 124.46 106.738L72.9801 81.5482C72.9254 81.529 72.8755 81.4985 72.8335 81.4587C72.7916 81.4188 72.7586 81.3706 72.7367 81.3172C72.7149 81.2637 72.7047 81.2063 72.7068 81.1486C72.7089 81.0909 72.7233 81.0344 72.749 80.9827C72.7747 80.9309 72.8111 80.8852 72.8559 80.8486C72.9006 80.8119 72.9527 80.7851 73.0086 80.7699C73.0646 80.7547 73.1231 80.7515 73.1804 80.7605C73.2377 80.7695 73.2924 80.7904 73.3409 80.822L124.829 105.962C124.877 105.986 124.921 106.019 124.956 106.059C124.992 106.099 125.02 106.146 125.037 106.197C125.055 106.248 125.062 106.301 125.058 106.355C125.055 106.408 125.041 106.461 125.017 106.509C124.981 106.578 124.927 106.635 124.861 106.676C124.794 106.716 124.718 106.737 124.64 106.738Z" fill="#E6E7E8"/>
<path d="M218.94 91.6174C218.94 91.6174 221.4 86.8194 221.015 84.8692C220.629 82.919 219.998 77.0603 219.998 77.0603L236.16 78.5535L230.961 97.215" fill="white"/>
<path d="M230.945 97.6394H230.83C230.723 97.6088 230.633 97.538 230.577 97.442C230.522 97.346 230.507 97.2324 230.535 97.1253L235.594 78.9371L220.473 77.5418C220.654 79.0105 221.154 83.2536 221.433 84.8121C221.802 86.8766 219.424 91.6174 219.317 91.8214C219.266 91.9201 219.179 91.995 219.073 92.0301C218.967 92.0651 218.852 92.0576 218.751 92.0091C218.702 91.9848 218.657 91.9509 218.621 91.9093C218.584 91.8677 218.556 91.8193 218.539 91.7669C218.521 91.7145 218.514 91.6591 218.518 91.6041C218.522 91.549 218.538 91.4953 218.563 91.4461C219.219 90.1405 220.867 86.4441 220.605 84.9182C220.26 82.9762 219.604 77.3214 219.58 77.0766C219.572 77.0146 219.579 76.9518 219.599 76.8925C219.618 76.8333 219.651 76.7791 219.694 76.7339C219.739 76.6899 219.794 76.6561 219.853 76.6349C219.913 76.6138 219.976 76.6058 220.039 76.6115L236.16 78.1211C236.222 78.1281 236.281 78.1477 236.335 78.1786C236.388 78.2095 236.435 78.251 236.472 78.3006C236.507 78.3513 236.53 78.409 236.54 78.4696C236.55 78.5303 236.546 78.5924 236.529 78.6515L231.338 97.3211C231.317 97.4097 231.267 97.4889 231.196 97.5464C231.125 97.6039 231.036 97.6365 230.945 97.6394Z" fill="#231F20"/>
<path d="M105.928 115.118C105.928 115.118 106.075 105.62 105.928 103.482C105.78 101.344 109.003 89.4469 108.232 87.5783C107.461 85.7097 105.313 84.9835 104.542 87.1866C103.771 89.3898 102.385 94.2857 102.385 94.2857C102.385 94.2857 93.923 89.096 92.2256 92.6537C90.5282 96.2114 88.9456 102.829 90.7332 104.518C91.8201 105.525 93.2082 106.149 94.6856 106.297L94.2264 118.349L105.928 115.118Z" fill="white"/>
<path d="M94.2262 118.798C94.1313 118.797 94.0393 118.765 93.9638 118.708C93.9116 118.668 93.87 118.616 93.8429 118.556C93.8157 118.496 93.8037 118.431 93.808 118.365L94.2508 106.705C92.8272 106.478 91.5031 105.836 90.446 104.861C88.2976 102.853 90.3312 95.7136 91.84 92.5068C91.9948 92.1746 92.2225 91.8812 92.5063 91.6482C92.7901 91.4152 93.1229 91.2485 93.48 91.1605C96.0958 90.3445 100.663 92.7924 102.164 93.6084C102.541 92.2783 103.558 88.7696 104.173 87.0071C104.278 86.5709 104.518 86.1786 104.859 85.8857C105.201 85.5928 105.626 85.4142 106.075 85.3752C106.657 85.4184 107.213 85.6321 107.672 85.9893C108.132 86.3466 108.475 86.8314 108.658 87.3825C109.117 88.5085 108.47 91.9928 107.412 97.1742C106.916 99.2217 106.57 101.303 106.379 103.4C106.534 105.538 106.379 114.685 106.379 115.077C106.38 115.168 106.351 115.256 106.296 115.329C106.241 115.401 106.163 115.453 106.075 115.477L94.3738 118.741C94.3312 118.773 94.2799 118.793 94.2262 118.798ZM94.6362 91.8704C94.3177 91.8671 94.0003 91.9083 93.6932 91.9928C93.4563 92.0538 93.2361 92.1668 93.0489 92.3236C92.8616 92.4803 92.7119 92.6767 92.6108 92.8985C90.9708 96.448 89.4456 102.796 91.02 104.273C92.0393 105.201 93.3346 105.774 94.71 105.905C94.8217 105.912 94.9264 105.961 95.0015 106.044C95.0767 106.126 95.1163 106.235 95.1118 106.346L94.669 117.819L105.509 114.799C105.509 113.167 105.641 105.391 105.509 103.506C105.684 101.33 106.035 99.1717 106.559 97.0518C107.272 93.5268 108.248 88.7044 107.855 87.7333C107.731 87.3427 107.498 86.9952 107.183 86.7321C106.868 86.4689 106.483 86.3011 106.075 86.2483C105.444 86.2483 105.116 86.8439 104.952 87.3253C104.189 89.4877 102.812 94.3509 102.803 94.3999C102.785 94.4622 102.752 94.5195 102.708 94.5675C102.664 94.6155 102.61 94.6531 102.549 94.6773C102.491 94.7074 102.426 94.7231 102.361 94.7231C102.295 94.7231 102.23 94.7074 102.172 94.6773C102.115 94.6121 97.58 91.8377 94.6362 91.8377V91.8704Z" fill="#231F20"/>
<path d="M138.564 172.163L127.141 215.548L155.726 213.672L162.057 192.252L172.036 212.872H197.645L182.016 153.681L138.564 172.163Z" fill="#231F20"/>
<path d="M179.154 166.541L136.776 174.407L147.313 112.123C147.313 112.123 168.887 107.815 174.103 107.815C178.498 107.782 179.154 166.541 179.154 166.541Z" fill="white"/>
<path d="M136.776 174.782C136.669 174.783 136.566 174.742 136.489 174.668C136.442 174.622 136.406 174.565 136.385 174.503C136.364 174.44 136.357 174.374 136.366 174.309L146.903 112.017C146.919 111.936 146.959 111.862 147.018 111.804C147.076 111.746 147.15 111.707 147.231 111.69C148.109 111.511 168.904 107.374 174.103 107.374C175.037 107.374 177.235 107.423 178.678 137.141C179.383 151.665 179.556 166.386 179.564 166.516C179.564 166.612 179.53 166.706 179.469 166.78C179.408 166.854 179.322 166.905 179.228 166.924L136.842 174.758L136.776 174.782ZM147.666 112.433L137.276 173.868L178.744 166.198C178.367 133.64 176.333 108.19 174.103 108.19C169.306 108.19 150.2 111.927 147.666 112.433Z" fill="#231F20"/>
<path d="M154.488 107.782C153.857 108.19 155.702 117.255 155.808 118.071C156.731 126.294 157.18 134.563 157.153 142.836C157.086 152.069 155.264 161.206 151.782 169.764C150.216 173.721 148.396 177.589 146.485 181.392C144.574 185.194 140.819 185.847 136.817 185.561C132.536 185.253 128.303 184.467 124.197 183.219C122.725 182.906 121.38 182.161 120.335 181.081C118.695 179.001 120.483 176.186 121.418 174.195C122.746 171.363 124.017 168.483 125.206 165.61C127.1 160.968 132.209 149.838 133.513 144.999C135.21 138.708 132.693 138.691 132.988 132.188C133.111 129.56 133.144 126.933 133.25 124.306C133.308 122.731 132.832 117.778 133.865 116.586C141.762 107.537 154.488 107.782 154.488 107.782Z" fill="#616161"/>
<path d="M186.14 106.33C186.403 106.378 185.115 127.48 185.205 128.532C185.886 136.537 197.669 168.018 197.669 168.018C197.669 170.914 168.289 188.254 166.411 183.056C175.119 137.361 169.117 107.798 168.912 107.782C168.92 107.782 179.375 105.048 186.14 106.33Z" fill="#616161"/>
<path d="M164.607 118.92L161.384 122.037L163.992 123.832C163.992 123.832 161.245 144.167 151.585 147.055C141.926 149.944 138.17 148.948 138.17 148.948L132.84 155.843C132.84 155.843 141.122 158.201 141.713 158.397C142.303 158.593 159.851 154.521 162.614 143.71C164.262 137.332 165.343 130.823 165.845 124.257L167.592 122.07L164.607 118.92Z" fill="#231F20"/>
<path d="M152.52 139.083C152.456 139.082 152.394 139.067 152.337 139.039C152.28 139.011 152.231 138.97 152.192 138.92L144.008 127.896C143.945 127.823 143.911 127.731 143.911 127.635C143.911 127.539 143.945 127.446 144.008 127.374L149.101 122.135L142.713 120.503C142.644 120.487 142.582 120.452 142.531 120.403C142.481 120.355 142.444 120.293 142.426 120.226C142.407 120.158 142.406 120.086 142.423 120.017C142.44 119.948 142.475 119.885 142.524 119.834L149.994 111.862C150.069 111.783 150.173 111.737 150.282 111.734C150.391 111.731 150.497 111.771 150.577 111.846C150.656 111.92 150.702 112.023 150.705 112.132C150.708 112.241 150.668 112.346 150.593 112.425L143.59 119.891L149.994 121.523C150.063 121.543 150.125 121.579 150.175 121.629C150.225 121.679 150.262 121.741 150.281 121.809C150.301 121.877 150.303 121.949 150.286 122.018C150.268 122.087 150.233 122.15 150.183 122.2L144.837 127.692L152.799 138.471C152.861 138.558 152.886 138.666 152.869 138.771C152.852 138.876 152.795 138.97 152.709 139.034C152.651 139.066 152.586 139.083 152.52 139.083Z" fill="#231F20"/>
<path d="M173.02 137.892C172.966 137.899 172.911 137.899 172.856 137.892C172.757 137.847 172.68 137.766 172.64 137.665C172.6 137.565 172.601 137.453 172.643 137.353L178.654 123.4L172.487 120.324C172.389 120.268 172.316 120.177 172.282 120.071C172.266 120.016 172.262 119.959 172.269 119.903C172.276 119.847 172.294 119.793 172.323 119.744L176.932 112.294L170.88 109.512C170.782 109.464 170.706 109.381 170.668 109.279C170.63 109.177 170.632 109.065 170.675 108.965C170.698 108.916 170.73 108.872 170.77 108.836C170.81 108.799 170.857 108.771 170.909 108.753C170.96 108.735 171.014 108.727 171.068 108.73C171.122 108.732 171.175 108.746 171.224 108.769L177.694 111.748C177.747 111.771 177.795 111.806 177.833 111.85C177.871 111.894 177.899 111.945 177.916 112.001C177.932 112.056 177.936 112.115 177.929 112.172C177.922 112.229 177.904 112.285 177.875 112.335L173.233 119.736L179.342 122.788C179.436 122.834 179.508 122.913 179.544 123.01C179.581 123.107 179.579 123.214 179.539 123.31L173.373 137.614C173.347 137.689 173.3 137.755 173.237 137.804C173.175 137.853 173.099 137.884 173.02 137.892Z" fill="#231F20"/>
<path d="M223.786 30.4515L233.569 50.1737L255.438 53.3398L239.612 68.6883L243.351 90.3689L223.786 80.1365L204.221 90.3689L207.96 68.6883L192.134 53.3398L214.004 50.1737L223.786 30.4515Z" fill="white"/>
<path d="M243.351 90.7769C243.285 90.7774 243.22 90.7605 243.163 90.728L223.786 80.569L204.41 90.7035C204.346 90.7453 204.272 90.7675 204.196 90.7675C204.121 90.7675 204.046 90.7453 203.983 90.7035C203.92 90.6595 203.871 90.5984 203.842 90.5275C203.813 90.4566 203.805 90.379 203.819 90.3037L207.517 68.8434L191.88 53.6417C191.824 53.5896 191.785 53.5228 191.766 53.4491C191.747 53.3753 191.75 53.2978 191.773 53.2255C191.798 53.154 191.841 53.0905 191.899 53.0416C191.957 52.9927 192.027 52.9604 192.101 52.9481L213.766 49.8147L223.45 30.2883C223.488 30.2239 223.541 30.1705 223.606 30.1333C223.671 30.0962 223.744 30.0766 223.819 30.0766C223.894 30.0766 223.967 30.0962 224.032 30.1333C224.097 30.1705 224.151 30.2239 224.188 30.2883L233.872 49.8147L255.537 52.9481C255.612 52.9604 255.682 52.9927 255.739 53.0416C255.797 53.0905 255.84 53.154 255.865 53.2255C255.889 53.2978 255.891 53.3753 255.872 53.4491C255.853 53.5228 255.814 53.5896 255.758 53.6417L240.055 68.8352L243.753 90.2955C243.767 90.3708 243.759 90.4485 243.73 90.5194C243.701 90.5902 243.652 90.6513 243.589 90.6954C243.522 90.7494 243.438 90.7783 243.351 90.7769ZM223.786 79.753C223.848 79.7372 223.913 79.7372 223.975 79.753L242.835 89.6101L239.235 68.7455C239.224 68.6796 239.229 68.6122 239.249 68.5485C239.269 68.4848 239.304 68.4265 239.35 68.3783L254.561 53.6417L233.511 50.5981C233.445 50.5871 233.382 50.5608 233.328 50.521C233.274 50.4813 233.23 50.4294 233.2 50.3696L223.786 31.3736L214.373 50.3778C214.343 50.4376 214.299 50.4895 214.244 50.5292C214.19 50.5689 214.127 50.5953 214.061 50.6062L193.012 53.6417L208.28 68.3946C208.326 68.4429 208.361 68.5011 208.381 68.5648C208.401 68.6285 208.406 68.6959 208.395 68.7618L204.795 89.6264L223.655 79.7694C223.698 79.7563 223.742 79.7508 223.786 79.753Z" fill="#231F20"/>
<path d="M186.14 106.33C186.14 106.33 201.515 111.47 205.459 110.32C209.403 109.169 217.382 90.3608 217.382 90.3608L233.544 92.36C233.544 92.36 226.804 132.147 213.979 134.285C201.154 136.423 184.106 130.736 184.106 130.736L186.14 106.33Z" fill="#616161"/>
<path d="M148.732 91.6174C148.076 88.6635 147.19 85.7423 146.928 82.7314C146.665 79.7204 147.075 76.5299 148.789 74.0412C150.634 71.3648 152.987 71.6748 155.825 71.3076C159.588 70.818 162.95 68.9413 166.444 67.5868C167.108 67.3256 168.141 67.2685 168.264 67.9703C168.284 68.1897 168.241 68.4103 168.141 68.6067C167.69 69.7172 167.061 70.7477 166.28 71.6585C169.012 71.0412 171.633 70.0121 174.053 68.6067C174.311 69.938 174.264 71.31 173.916 72.6208C173.569 73.9317 172.929 75.1478 172.044 76.179L176.661 73.878C177.005 75.8158 176.594 77.8111 175.513 79.4586C174.431 81.1061 172.76 82.2821 170.839 82.7477" fill="white"/>
<path d="M148.732 92.0336C148.636 92.0355 148.542 92.0039 148.467 91.9442C148.392 91.8846 148.341 91.8007 148.322 91.7072C148.149 90.9401 147.961 90.1731 147.772 89.3979C147.184 87.2242 146.762 85.0093 146.509 82.7722C146.288 80.2753 146.444 76.7013 148.445 73.7964C150.085 71.43 152.151 71.2342 154.357 71.0384L155.775 70.8915C158.442 70.4118 161.028 69.5631 163.459 68.3701C164.385 67.9703 165.337 67.5541 166.288 67.1951C166.583 67.068 166.901 67.0024 167.223 67.0024C167.544 67.0024 167.862 67.068 168.157 67.1951C168.295 67.2675 168.414 67.3708 168.506 67.4968C168.597 67.6228 168.657 67.7681 168.682 67.9213C168.721 68.2178 168.669 68.519 168.535 68.7863C168.221 69.5581 167.826 70.294 167.354 70.9813C169.626 70.3545 171.806 69.4356 173.84 68.2477C173.899 68.2156 173.965 68.1987 174.033 68.1987C174.1 68.1987 174.166 68.2156 174.225 68.2477C174.286 68.2759 174.339 68.318 174.38 68.3704C174.422 68.4229 174.45 68.4843 174.463 68.5496C174.901 70.7862 174.51 73.1048 173.364 75.0775L176.464 73.5353C176.523 73.5071 176.587 73.4924 176.653 73.4924C176.718 73.4924 176.782 73.5071 176.841 73.5353C176.9 73.5632 176.951 73.6042 176.991 73.6552C177.031 73.7062 177.058 73.7657 177.071 73.829C177.438 75.8763 177.006 77.9859 175.863 79.7269C174.72 81.468 172.952 82.709 170.921 83.1965C170.866 83.2084 170.81 83.2094 170.755 83.1993C170.7 83.1893 170.648 83.1685 170.602 83.1381C170.555 83.1076 170.515 83.0683 170.484 83.0223C170.453 82.9762 170.431 82.9245 170.421 82.8701C170.401 82.76 170.425 82.6466 170.488 82.5538C170.551 82.461 170.647 82.396 170.757 82.3723C172.579 81.9595 174.163 80.8444 175.16 79.2716C176.092 77.8661 176.495 76.1787 176.3 74.5063L172.2 76.5544C172.113 76.594 172.014 76.6031 171.921 76.5802C171.828 76.5573 171.745 76.5037 171.686 76.4282C171.627 76.3526 171.596 76.2595 171.597 76.164C171.598 76.0684 171.631 75.976 171.692 75.9016C172.467 74.9946 173.046 73.9378 173.392 72.7976C173.737 71.6574 173.843 70.4584 173.701 69.2759C171.386 70.5504 168.901 71.4901 166.321 72.0665C166.234 72.0851 166.144 72.0763 166.062 72.0415C165.981 72.0066 165.912 71.9473 165.866 71.8719C165.82 71.7965 165.799 71.7087 165.805 71.6208C165.812 71.5328 165.846 71.449 165.902 71.3811C166.66 70.5087 167.269 69.5192 167.706 68.4517C167.767 68.3243 167.798 68.1848 167.797 68.0437C167.794 68.0141 167.783 67.9857 167.766 67.9614C167.749 67.9371 167.725 67.9176 167.698 67.905C167.319 67.7908 166.911 67.8168 166.55 67.9785C165.615 68.3375 164.664 68.7944 163.754 69.1453C161.247 70.3671 158.581 71.235 155.833 71.7238C155.333 71.7891 154.849 71.8299 154.381 71.8788C152.217 72.0747 150.503 72.2297 149.092 74.2778C147.239 76.9706 147.092 80.3406 147.297 82.6987C147.55 84.9023 147.967 87.0841 148.543 89.2266C148.732 90.0426 148.92 90.7769 149.101 91.5521C149.122 91.6613 149.1 91.7747 149.039 91.8678C148.978 91.9609 148.882 92.0263 148.773 92.0499L148.732 92.0336Z" fill="#231F20"/>
<path d="M168.92 104.232L169.896 110.564C169.896 110.564 168.895 119.777 161.901 118.161C154.906 116.546 152.118 110.271 152.118 110.271L151.224 93.5431C151.224 93.5431 156.382 90.7443 154.75 79.5735C160.483 81.9648 166.758 82.7739 172.913 81.9154C172.913 81.9154 175.373 93.4207 174.619 98.8062C174.493 100.245 173.845 101.589 172.796 102.587C171.748 103.586 170.37 104.171 168.92 104.232Z" fill="white"/>
<path d="M163.451 118.798C162.899 118.792 162.349 118.726 161.811 118.602C159.636 118.054 157.608 117.04 155.869 115.631C154.129 114.221 152.721 112.45 151.741 110.442C151.73 110.394 151.73 110.343 151.741 110.295L150.782 93.6247C150.776 93.545 150.794 93.4654 150.833 93.3958C150.873 93.3262 150.932 93.2696 151.003 93.233C151.052 93.233 155.866 90.3934 154.283 79.6959C154.275 79.6202 154.286 79.5435 154.316 79.4734C154.346 79.4033 154.394 79.3422 154.455 79.2961C154.516 79.2483 154.59 79.2191 154.667 79.2119C154.744 79.2046 154.821 79.2197 154.89 79.2553C160.553 81.5935 166.741 82.3878 172.815 81.5564C172.921 81.5439 173.028 81.5714 173.114 81.6333C173.201 81.6952 173.261 81.7871 173.283 81.8909C173.381 82.356 175.784 93.5268 174.988 98.9286C174.849 100.379 174.214 101.738 173.188 102.777C172.163 103.817 170.809 104.475 169.355 104.64L170.265 110.524C170.269 110.562 170.269 110.6 170.265 110.638C170.265 110.834 169.683 115.648 166.641 117.794C165.71 118.454 164.594 118.806 163.451 118.798ZM152.52 110.189C152.84 110.858 155.661 116.317 161.975 117.778C162.684 117.981 163.429 118.027 164.157 117.911C164.886 117.796 165.58 117.522 166.19 117.109C168.764 115.297 169.388 111.111 169.47 110.581L168.502 104.306C168.493 104.246 168.496 104.185 168.513 104.128C168.53 104.07 168.56 104.016 168.6 103.971C168.637 103.924 168.684 103.886 168.738 103.86C168.792 103.835 168.852 103.823 168.912 103.824C170.264 103.769 171.548 103.223 172.522 102.289C173.497 101.355 174.094 100.099 174.201 98.7572C174.89 94.049 173.004 84.4205 172.561 82.4376C166.703 83.1442 160.76 82.413 155.251 80.3079C156.423 89.8304 152.643 93.1188 151.643 93.8124L152.52 110.189Z" fill="#231F20"/>
<path d="M165.304 88.6799C165.304 88.6799 168.584 94.7426 167.624 95.6565C166.665 96.5704 164.115 95.6565 164.115 95.6565" fill="white"/>
<path d="M166.23 96.4725C165.471 96.4556 164.718 96.3207 164 96.0727C163.945 96.0586 163.894 96.0333 163.849 95.9984C163.804 95.9635 163.767 95.9197 163.74 95.8699C163.714 95.82 163.697 95.7651 163.693 95.7087C163.689 95.6523 163.696 95.5957 163.715 95.5423C163.734 95.4889 163.764 95.4401 163.802 95.3987C163.841 95.3574 163.888 95.3246 163.941 95.3024C163.993 95.2801 164.049 95.2689 164.106 95.2695C164.163 95.27 164.219 95.2823 164.271 95.3056C164.861 95.5178 166.731 95.9747 167.362 95.3709C167.764 95.0037 166.616 91.9193 164.959 88.892C164.934 88.8449 164.917 88.7931 164.911 88.7397C164.906 88.6863 164.91 88.6322 164.926 88.5807C164.941 88.5291 164.966 88.4811 165 88.4393C165.034 88.3975 165.076 88.3628 165.123 88.3372C165.171 88.3113 165.223 88.295 165.277 88.2892C165.33 88.2834 165.385 88.2883 165.436 88.3034C165.488 88.3186 165.536 88.3438 165.578 88.3776C165.62 88.4114 165.655 88.4531 165.681 88.5004C166.731 90.4097 169.035 94.9548 167.911 95.9747C167.432 96.3405 166.833 96.5177 166.23 96.4725Z" fill="#231F20"/>
<path d="M159.402 89.164C159.782 89.1481 160.06 88.4343 160.024 87.5699C159.987 86.7054 159.649 86.0175 159.269 86.0334C158.889 86.0493 158.611 86.763 158.647 87.6275C158.684 88.492 159.022 89.1799 159.402 89.164Z" fill="#231F20"/>
<path d="M170.38 89.1615C170.76 89.1455 171.038 88.4318 171.002 87.5673C170.965 86.7029 170.628 86.015 170.247 86.0309C169.867 86.0468 169.589 86.7605 169.626 87.625C169.662 88.4895 170 89.1774 170.38 89.1615Z" fill="#231F20"/>
<path d="M155.693 90.6872C155.069 89.6384 154.251 88.7165 153.283 87.9699C152.785 87.5224 152.161 87.2376 151.495 87.154C150.948 87.1596 150.414 87.3179 149.953 87.6109C149.264 88.0123 148.668 88.5543 148.205 89.2012C147.741 89.8481 147.421 90.5854 147.264 91.3644C147.11 92.0863 147.139 92.8347 147.346 93.5431C147.742 94.6413 148.514 95.5657 149.527 96.1542C150.531 96.7316 151.599 97.1916 152.709 97.5251" fill="white"/>
<path d="M152.709 97.9739H152.569C151.423 97.6309 150.322 97.1543 149.289 96.5541C148.193 95.9167 147.359 94.9135 146.936 93.7226C146.705 92.946 146.671 92.1246 146.837 91.3318C147.005 90.4867 147.351 89.6865 147.851 88.9835C148.351 88.2804 148.995 87.6903 149.74 87.2519C150.267 86.9169 150.878 86.7386 151.503 86.7378C152.254 86.8168 152.964 87.1213 153.537 87.6109C154.545 88.3924 155.396 89.3557 156.046 90.4505C156.103 90.5469 156.12 90.6619 156.092 90.7705C156.064 90.879 155.995 90.9722 155.898 91.0299C155.8 91.0861 155.684 91.1013 155.575 91.0723C155.466 91.0432 155.373 90.9722 155.316 90.8748C154.726 89.8709 153.946 88.9898 153.02 88.28C152.584 87.9006 152.045 87.6591 151.47 87.5864C151.005 87.593 150.551 87.7286 150.158 87.9781C149.528 88.355 148.983 88.8589 148.559 89.4575C148.136 90.0561 147.842 90.7362 147.698 91.4542C147.565 92.1089 147.59 92.7858 147.772 93.4289C148.138 94.4295 148.847 95.2701 149.773 95.8034C150.75 96.3657 151.791 96.8121 152.873 97.1334C152.925 97.1509 152.973 97.1785 153.015 97.2147C153.056 97.2509 153.09 97.2949 153.115 97.3442C153.139 97.3935 153.154 97.4471 153.157 97.502C153.161 97.5569 153.153 97.6118 153.135 97.6638C153.112 97.7572 153.057 97.8395 152.979 97.8963C152.901 97.953 152.805 97.9805 152.709 97.9739Z" fill="#231F20"/>
<path d="M168.92 104.232C164.9 104.85 160.786 104.175 157.178 102.307C157.178 102.307 163.164 111.462 169.838 110.173L168.92 104.232Z" fill="#231F20"/>
<path d="M168.494 110.76C162.229 110.76 157.014 102.943 156.809 102.6C156.76 102.524 156.738 102.435 156.746 102.345C156.753 102.255 156.79 102.17 156.85 102.103C156.909 102.035 156.991 101.989 157.08 101.972C157.169 101.956 157.262 101.97 157.342 102.013C160.873 103.83 164.891 104.489 168.822 103.898C168.933 103.878 169.047 103.902 169.141 103.963C169.187 103.995 169.226 104.037 169.256 104.084C169.286 104.132 169.305 104.185 169.314 104.241L170.232 110.173C170.251 110.277 170.228 110.384 170.168 110.471C170.109 110.558 170.016 110.618 169.912 110.638C169.444 110.723 168.969 110.764 168.494 110.76ZM158.416 103.416C160.261 105.758 164.656 110.532 169.346 109.944L168.526 104.812C165.086 105.231 161.596 104.73 158.416 103.359V103.416Z" fill="#231F20"/>
<path d="M160.015 93.1106C158.915 93.1106 157.84 92.7862 156.926 92.1783C156.012 91.5704 155.299 90.7063 154.879 89.6954C154.458 88.6845 154.348 87.5722 154.562 86.499C154.777 85.4258 155.306 84.4401 156.084 83.6663C156.861 82.8926 157.852 82.3657 158.93 82.1523C160.009 81.9388 161.127 82.0484 162.142 82.4671C163.158 82.8858 164.027 83.5949 164.638 84.5047C165.248 85.4145 165.575 86.4841 165.575 87.5783C165.572 89.0449 164.986 90.4508 163.944 91.4879C162.902 92.5249 161.489 93.1085 160.015 93.1106ZM160.015 82.8864C159.082 82.8864 158.171 83.1616 157.395 83.6771C156.62 84.1927 156.016 84.9255 155.659 85.7828C155.302 86.6401 155.209 87.5835 155.391 88.4936C155.572 89.4038 156.022 90.2398 156.681 90.896C157.34 91.5521 158.18 91.999 159.095 92.18C160.01 92.3611 160.958 92.2682 161.819 91.913C162.681 91.5579 163.417 90.9566 163.935 90.185C164.453 89.4134 164.73 88.5063 164.73 87.5783C164.728 86.3346 164.23 85.1425 163.347 84.263C162.463 83.3836 161.265 82.8886 160.015 82.8864Z" fill="#231F20"/>
<path d="M171.101 93.1106C170.002 93.1106 168.927 92.7862 168.013 92.1783C167.098 91.5704 166.386 90.7063 165.965 89.6954C165.544 88.6845 165.434 87.5722 165.649 86.499C165.863 85.4258 166.393 84.4401 167.17 83.6663C167.948 82.8926 168.938 82.3657 170.017 82.1523C171.095 81.9388 172.213 82.0484 173.229 82.4671C174.245 82.8858 175.113 83.5949 175.724 84.5047C176.335 85.4145 176.661 86.4841 176.661 87.5783C176.659 89.0449 176.072 90.4508 175.03 91.4879C173.988 92.5249 172.575 93.1085 171.101 93.1106ZM171.101 82.8864C170.169 82.8864 169.257 83.1616 168.482 83.6771C167.706 84.1927 167.102 84.9255 166.745 85.7828C166.388 86.6401 166.295 87.5835 166.477 88.4936C166.659 89.4038 167.108 90.2398 167.767 90.896C168.427 91.5521 169.267 91.999 170.182 92.18C171.096 92.3611 172.044 92.2682 172.906 91.913C173.767 91.5579 174.504 90.9566 175.022 90.185C175.54 89.4134 175.816 88.5063 175.816 87.5783C175.814 86.3346 175.317 85.1425 174.433 84.263C173.549 83.3836 172.351 82.8886 171.101 82.8864Z" fill="#231F20"/>
<path d="M165.337 99.8506C162.745 99.8506 160.244 98.284 157.891 95.2404C157.85 95.199 157.819 95.1495 157.799 95.0951C157.779 95.0408 157.771 94.9828 157.775 94.925C157.779 94.8672 157.796 94.811 157.823 94.7601C157.851 94.7092 157.889 94.6647 157.936 94.6297C157.982 94.5947 158.035 94.5698 158.092 94.5569C158.149 94.544 158.208 94.5432 158.265 94.5547C158.322 94.5661 158.376 94.5895 158.423 94.6233C158.47 94.6572 158.51 94.7006 158.539 94.7508C160.728 97.5741 163.016 99.0183 165.337 99.0347C168.543 99.0347 170.765 96.2767 170.79 96.2522C170.858 96.174 170.954 96.1249 171.058 96.1149C171.162 96.1048 171.266 96.1346 171.349 96.198C171.431 96.2615 171.486 96.3539 171.503 96.4565C171.519 96.559 171.496 96.664 171.437 96.7499C171.323 96.8886 168.92 99.8506 165.337 99.8506Z" fill="#231F20"/>
<path d="M136.776 113.812C133.865 116.595 112.307 138.291 110.692 134.293C109.076 130.295 107.928 111.943 107.928 111.943L93.1684 114.122C93.1684 114.122 84.6568 155.443 99.4578 159.997C114.259 164.55 136.776 142.861 136.776 142.861V113.812Z" fill="#616161"/>
<path d="M124.64 167.332C124.568 167.333 124.497 167.313 124.435 167.275C124.388 167.249 124.347 167.214 124.314 167.171C124.281 167.129 124.257 167.081 124.243 167.029C124.23 166.977 124.226 166.923 124.234 166.87C124.242 166.817 124.26 166.766 124.288 166.72C124.378 166.557 133.824 149.781 136.891 123.131C136.907 123.024 136.964 122.927 137.049 122.861C137.134 122.794 137.242 122.762 137.35 122.772C137.458 122.784 137.556 122.838 137.623 122.922C137.691 123.006 137.722 123.113 137.711 123.22C134.62 150.05 125.091 166.957 124.993 167.128C124.957 167.19 124.906 167.241 124.844 167.277C124.782 167.313 124.712 167.332 124.64 167.332Z" fill="#231F20"/>
<path d="M210.822 134.709C199.793 134.709 179.277 130.115 179.072 130.066C179.019 130.055 178.969 130.033 178.924 130.002C178.88 129.971 178.842 129.932 178.813 129.886C178.784 129.841 178.765 129.79 178.756 129.737C178.747 129.684 178.748 129.629 178.76 129.577C178.771 129.524 178.792 129.474 178.823 129.429C178.854 129.385 178.894 129.347 178.94 129.319C178.986 129.29 179.038 129.272 179.091 129.264C179.145 129.257 179.2 129.26 179.252 129.275C179.457 129.316 199.883 133.893 210.814 133.893H211.634C211.742 133.893 211.846 133.935 211.924 134.009C212.002 134.084 212.048 134.186 212.052 134.293C212.053 134.347 212.044 134.4 212.024 134.45C212.004 134.5 211.975 134.545 211.938 134.584C211.901 134.623 211.856 134.654 211.807 134.675C211.757 134.697 211.704 134.708 211.65 134.709H210.822Z" fill="#231F20"/>
<path d="M99.2939 92.6863C99.2939 92.6863 101.885 95.4362 100.614 100.259C99.3431 105.081 97.2029 105.97 93.5703 103.824" fill="white"/>
<path d="M96.7601 105.358C95.5379 105.278 94.3599 104.872 93.3489 104.183C93.3015 104.155 93.2602 104.118 93.2274 104.073C93.1945 104.029 93.1707 103.979 93.1574 103.925C93.1441 103.872 93.1415 103.816 93.1497 103.762C93.1579 103.708 93.1769 103.655 93.2054 103.608C93.2339 103.561 93.2715 103.52 93.316 103.487C93.3605 103.455 93.411 103.431 93.4647 103.418C93.5184 103.404 93.5742 103.402 93.6289 103.41C93.6836 103.418 93.7361 103.437 93.7835 103.465C95.4235 104.453 96.6863 104.738 97.6375 104.355C98.7363 103.914 99.5727 102.543 100.196 100.153C101.385 95.632 99.0725 93.0861 98.9741 92.9801C98.8955 92.9007 98.8514 92.7937 98.8514 92.6822C98.8514 92.5708 98.8955 92.4638 98.9741 92.3844C99.0124 92.3449 99.0582 92.3135 99.1089 92.2921C99.1597 92.2706 99.2142 92.2596 99.2693 92.2596C99.3244 92.2596 99.379 92.2706 99.4297 92.2921C99.4804 92.3135 99.5263 92.3449 99.5645 92.3844C99.6793 92.5068 102.303 95.3627 100.991 100.348C100.278 103.049 99.3513 104.567 97.9327 105.122C97.5602 105.273 97.1624 105.354 96.7601 105.358Z" fill="#231F20"/>
<path d="M221.014 84.8693C221.014 84.8693 216.283 76.9461 217.439 76.1383C218.596 75.3304 221.285 78.4148 222.769 80.5038C222.769 80.5038 227.32 81.3197 226.558 86.3625" fill="white"/>
<path d="M226.558 86.7868H226.492C226.382 86.7687 226.283 86.7081 226.217 86.618C226.151 86.5279 226.123 86.4156 226.14 86.3054C226.837 81.7195 222.86 80.9525 222.696 80.928C222.587 80.9074 222.49 80.8461 222.425 80.7567C220.474 78.0068 218.325 76.0566 217.686 76.4891C217.382 77.0358 219.071 80.7893 221.384 84.6489C221.438 84.7446 221.453 84.8576 221.426 84.9642C221.398 85.0708 221.33 85.1625 221.236 85.2201C221.188 85.2494 221.135 85.2688 221.08 85.2773C221.025 85.2857 220.968 85.283 220.914 85.2693C220.859 85.2556 220.808 85.2312 220.764 85.1975C220.719 85.1638 220.682 85.1216 220.654 85.0732C218.407 81.3034 215.98 76.636 217.202 75.7874C218.842 74.6287 221.966 78.6433 223.024 80.1202C223.901 80.3487 227.706 81.6216 226.976 86.4196C226.962 86.5206 226.913 86.6132 226.836 86.6807C226.759 86.7481 226.66 86.7858 226.558 86.7868Z" fill="#231F20"/>
<path d="M75.9484 205.969C75.865 205.968 75.7837 205.942 75.7156 205.894C75.6475 205.846 75.5957 205.778 75.5672 205.7C75.5386 205.622 75.5347 205.537 75.556 205.457C75.5772 205.377 75.6226 205.305 75.686 205.251L115.866 171.853C115.95 171.783 116.058 171.75 116.166 171.76C116.22 171.765 116.272 171.78 116.32 171.805C116.367 171.83 116.41 171.864 116.444 171.906C116.479 171.947 116.505 171.995 116.521 172.046C116.536 172.097 116.542 172.151 116.537 172.204C116.532 172.258 116.517 172.31 116.492 172.357C116.467 172.405 116.432 172.447 116.391 172.481L76.2108 205.879C76.1365 205.938 76.0437 205.97 75.9484 205.969Z" fill="#E6E7E8"/>
<path d="M260.801 191.836C260.712 191.837 260.626 191.808 260.555 191.755L198.989 145.325C198.939 145.296 198.895 145.257 198.861 145.21C198.827 145.163 198.804 145.109 198.792 145.053C198.781 144.996 198.782 144.937 198.795 144.881C198.808 144.824 198.832 144.771 198.868 144.725C198.903 144.679 198.948 144.641 198.999 144.613C199.05 144.586 199.106 144.569 199.164 144.565C199.222 144.561 199.281 144.569 199.335 144.589C199.39 144.609 199.44 144.64 199.481 144.681L261.047 191.102C261.134 191.167 261.191 191.263 261.207 191.37C261.222 191.478 261.194 191.586 261.129 191.673C261.09 191.723 261.041 191.764 260.984 191.792C260.927 191.82 260.865 191.835 260.801 191.836Z" fill="#E6E7E8"/>
<path d="M130.995 89.0878C130.938 89.0872 130.881 89.0745 130.829 89.0506C130.776 89.0267 130.73 88.9921 130.692 88.9491L100.655 55.5347C100.579 55.4571 100.537 55.3532 100.537 55.2451C100.537 55.1369 100.579 55.033 100.655 54.9554C100.693 54.9172 100.739 54.8868 100.788 54.8661C100.838 54.8454 100.892 54.8347 100.946 54.8347C101 54.8347 101.054 54.8454 101.104 54.8661C101.154 54.8868 101.199 54.9172 101.237 54.9554L131.266 88.3698C131.304 88.4077 131.335 88.4528 131.355 88.5026C131.376 88.5523 131.387 88.6056 131.387 88.6595C131.387 88.7133 131.376 88.7666 131.355 88.8164C131.335 88.8661 131.304 88.9112 131.266 88.9491C131.196 89.0275 131.1 89.0771 130.995 89.0878Z" fill="#E6E7E8"/>
<path d="M233.561 114.342C233.452 114.362 233.34 114.338 233.249 114.275C233.158 114.212 233.096 114.116 233.077 114.008C233.057 113.9 233.082 113.788 233.145 113.698C233.208 113.608 233.304 113.546 233.413 113.526L265.114 101.221C265.215 101.181 265.328 101.183 265.428 101.226C265.528 101.269 265.607 101.349 265.647 101.45C265.687 101.551 265.686 101.663 265.643 101.762C265.6 101.862 265.519 101.94 265.418 101.98L233.7 114.31C233.657 114.331 233.609 114.342 233.561 114.342Z" fill="#E6E7E8"/>
<path d="M184.107 86.2319C184.047 86.2471 183.985 86.2471 183.926 86.2319C183.878 86.2084 183.834 86.1756 183.798 86.1354C183.763 86.0952 183.735 86.0483 183.718 85.9975C183.7 85.9468 183.693 85.893 183.696 85.8394C183.7 85.7858 183.714 85.7334 183.738 85.6852L195.045 62.9357C195.093 62.8383 195.178 62.7638 195.281 62.7286C195.384 62.6934 195.497 62.7004 195.595 62.748C195.693 62.7956 195.767 62.88 195.803 62.9825C195.838 63.085 195.831 63.1973 195.783 63.2947L184.5 86.0116C184.463 86.082 184.406 86.1401 184.336 86.1792C184.266 86.2182 184.186 86.2365 184.107 86.2319Z" fill="#E6E7E8"/>
<path d="M260.801 141.482H260.76L223.745 136.684C223.691 136.678 223.639 136.661 223.592 136.634C223.545 136.608 223.503 136.572 223.47 136.53C223.436 136.487 223.412 136.439 223.397 136.387C223.382 136.335 223.378 136.281 223.385 136.227C223.391 136.173 223.408 136.122 223.435 136.075C223.461 136.028 223.497 135.986 223.539 135.953C223.582 135.92 223.631 135.895 223.683 135.88C223.735 135.866 223.79 135.862 223.844 135.868L260.867 140.666C260.974 140.68 261.072 140.736 261.138 140.822C261.204 140.908 261.233 141.016 261.219 141.123C261.205 141.223 261.155 141.315 261.078 141.381C261.001 141.447 260.903 141.483 260.801 141.482Z" fill="#E6E7E8"/>
<path d="M192.134 99.8506C192.072 99.8516 192.011 99.8381 191.956 99.8111C191.9 99.7842 191.852 99.7446 191.814 99.6956C191.78 99.6547 191.754 99.6073 191.738 99.5561C191.722 99.505 191.716 99.4512 191.722 99.3979C191.727 99.3447 191.743 99.293 191.769 99.246C191.795 99.199 191.83 99.1577 191.872 99.1244L197.39 94.6773C197.475 94.6106 197.583 94.58 197.691 94.5923C197.799 94.6045 197.897 94.6585 197.964 94.7426C198.032 94.8261 198.065 94.933 198.054 95.0399C198.043 95.1469 197.99 95.2453 197.907 95.3138L192.388 99.7609C192.316 99.8179 192.227 99.8495 192.134 99.8506Z" fill="#E6E7E8"/>
<path d="M227.542 205.969C227.471 205.97 227.401 205.953 227.339 205.918C227.277 205.884 227.225 205.834 227.189 205.773L205.96 170.033C205.906 169.94 205.891 169.829 205.919 169.725C205.946 169.622 206.014 169.533 206.107 169.478C206.201 169.424 206.313 169.407 206.418 169.433C206.524 169.459 206.615 169.525 206.673 169.617L227.894 205.357C227.922 205.403 227.94 205.454 227.948 205.507C227.956 205.56 227.952 205.614 227.939 205.665C227.925 205.717 227.901 205.766 227.868 205.808C227.835 205.85 227.794 205.886 227.747 205.912C227.686 205.95 227.614 205.97 227.542 205.969Z" fill="#E6E7E8"/>
<path d="M111.036 208.001C110.97 208.001 110.905 207.984 110.848 207.952C110.753 207.901 110.681 207.816 110.649 207.714C110.617 207.611 110.626 207.5 110.675 207.405L119.294 191.232C119.319 191.185 119.354 191.143 119.396 191.11C119.438 191.076 119.487 191.051 119.538 191.035C119.59 191.02 119.644 191.015 119.698 191.021C119.752 191.027 119.804 191.043 119.851 191.069C119.898 191.094 119.94 191.128 119.974 191.169C120.008 191.21 120.033 191.257 120.048 191.308C120.064 191.359 120.069 191.413 120.063 191.465C120.057 191.518 120.041 191.569 120.015 191.616L111.405 207.789C111.368 207.853 111.314 207.907 111.249 207.944C111.185 207.981 111.111 208.001 111.036 208.001Z" fill="#E6E7E8"/>
<path d="M62.7301 157.075C62.6388 157.076 62.5501 157.045 62.4786 156.989C62.4071 156.933 62.3569 156.854 62.3365 156.765C62.3118 156.66 62.3299 156.55 62.3867 156.458C62.4436 156.366 62.5346 156.301 62.6399 156.276L89.0685 150.295C89.1772 150.271 89.291 150.291 89.3848 150.351C89.4786 150.41 89.5447 150.505 89.5687 150.613C89.5926 150.721 89.5723 150.834 89.5124 150.928C89.4524 151.021 89.3576 151.087 89.2488 151.111L62.8203 157.084L62.7301 157.075Z" fill="#E6E7E8"/>
<path d="M146.854 60.8141C146.765 60.8155 146.678 60.7874 146.606 60.7342C146.535 60.6811 146.484 60.6058 146.46 60.5204L140.22 38.8316C140.192 38.7267 140.206 38.6151 140.26 38.5206C140.314 38.4261 140.402 38.3562 140.507 38.3257C140.558 38.3108 140.612 38.3062 140.665 38.3121C140.718 38.3181 140.769 38.3344 140.815 38.3602C140.862 38.386 140.903 38.4208 140.936 38.4625C140.969 38.5042 140.993 38.552 141.007 38.6032L147.272 60.3001C147.287 60.351 147.292 60.4043 147.286 60.457C147.28 60.5097 147.263 60.5607 147.237 60.607C147.211 60.6534 147.176 60.6941 147.134 60.7268C147.093 60.7596 147.045 60.7837 146.993 60.7978C146.949 60.815 146.901 60.8206 146.854 60.8141Z" fill="#E6E7E8"/>
<path d="M174.75 53.8293H174.66C174.607 53.8178 174.557 53.7959 174.513 53.765C174.468 53.734 174.431 53.6947 174.402 53.6492C174.373 53.6037 174.353 53.5529 174.344 53.4998C174.335 53.4467 174.336 53.3923 174.348 53.3398L178.76 34.0582C178.784 33.9499 178.85 33.8556 178.944 33.796C179.038 33.7363 179.152 33.7161 179.26 33.7399C179.369 33.7637 179.464 33.8295 179.524 33.9229C179.584 34.0162 179.604 34.1295 179.58 34.2377L175.152 53.5111C175.13 53.6011 175.079 53.6812 175.006 53.7388C174.933 53.7965 174.843 53.8283 174.75 53.8293Z" fill="#E6E7E8"/>
<path d="M86.8709 116.937H70.5611C70.4524 116.937 70.3481 116.894 70.2712 116.818C70.1943 116.741 70.1511 116.637 70.1511 116.529C70.1511 116.421 70.1943 116.317 70.2712 116.241C70.3481 116.164 70.4524 116.121 70.5611 116.121H86.8709C86.9796 116.121 87.0839 116.164 87.1608 116.241C87.2377 116.317 87.2809 116.421 87.2809 116.529C87.2809 116.637 87.2377 116.741 87.1608 116.818C87.0839 116.894 86.9796 116.937 86.8709 116.937Z" fill="#E6E7E8"/>
</svg>
